<svg xmlns="http://www.w3.org/2000/svg" viewBox="0 0 640 640" role="img" aria-labelledby="title">
  <title id="title">Беспроводные наушники</title>
  <defs>
    <linearGradient id="box" x1="0" y1="0" x2="1" y2="1">
      <stop offset="0" stop-color="#ff2b36"/>
      <stop offset="1" stop-color="#bd0010"/>
    </linearGradient>
    <filter id="shadow" x="-20%" y="-20%" width="140%" height="140%">
      <feDropShadow dx="0" dy="18" stdDeviation="18" flood-color="#101820" flood-opacity=".2"/>
    </filter>
  </defs>
  <g filter="url(#shadow)">
    <rect x="112" y="236" width="416" height="286" rx="56" fill="url(#box)" stroke="#101820" stroke-width="18"/>
    <path d="M206 242v-34c0-94 51-142 114-142s114 48 114 142v34" fill="none" stroke="#101820" stroke-linecap="round" stroke-width="38"/>
    <path d="M203 180c-54 0-84 43-84 96v72c0 43 27 70 66 70h50V180zM437 180c54 0 84 43 84 96v72c0 43-27 70-66 70h-50V180z" fill="#fff" stroke="#101820" stroke-linejoin="round" stroke-width="18"/>
    <path d="M105 334h132M403 334h132" stroke="#ffe500" stroke-linecap="round" stroke-width="18"/>
    <rect x="240" y="286" width="160" height="134" rx="28" fill="#fff"/>
    <text x="320" y="344" text-anchor="middle" font-family="Arial, sans-serif" font-size="34" font-weight="900" fill="#101820">ПРИЗ</text>
    <text x="320" y="388" text-anchor="middle" font-family="Arial, sans-serif" font-size="27" font-weight="800" fill="#e30613">05.RU</text>
  </g>
</svg>
